<?xml version="1.0" encoding="utf-8"?>
<!-- Generator: Adobe Illustrator 16.0.0, SVG Export Plug-In . SVG Version: 6.00 Build 0)  -->
<!DOCTYPE svg PUBLIC "-//W3C//DTD SVG 1.1//EN" "http://www.w3.org/Graphics/SVG/1.1/DTD/svg11.dtd">
<svg version="1.1" id="Layer_1" xmlns="http://www.w3.org/2000/svg" xmlns:xlink="http://www.w3.org/1999/xlink" x="0px" y="0px"
	 width="411.912px" height="68.36px" viewBox="0.995 1.565 411.912 68.36" enable-background="new 0.995 1.565 411.912 68.36"
	 xml:space="preserve">
<g>
	<g>
		<path fill="#16395F" d="M9.794,61.135c-3.419,0-6.474-0.82-8.799-2.053l0.638-4.377c2.143,1.414,5.106,2.688,8.252,2.688
			c3.283,0,5.608-1.731,5.608-4.787c0-2.87-1.276-4.058-6.018-6.198c-5.927-2.691-8.161-4.65-8.161-9.166
			c0-5.062,3.875-8.298,9.574-8.298c3.055,0,5.334,0.729,7.158,1.776l-0.684,4.286c-1.733-1.322-4.104-2.325-6.611-2.325
			c-3.602,0-5.198,1.915-5.198,4.24c0,2.416,1.188,3.557,5.973,5.744c6.109,2.781,8.207,4.879,8.207,9.621
			C19.734,57.715,15.676,61.135,9.794,61.135z"/>
		<path fill="#16395F" d="M27.482,34.646c-1.414,0-2.599-1.14-2.599-2.553s1.186-2.599,2.599-2.599s2.553,1.185,2.553,2.599
			S28.896,34.646,27.482,34.646z M25.431,60.771V39.023h4.058v21.748H25.431z"/>
		<path fill="#16395F" d="M62.999,60.771V45.954c0-2.234-0.821-3.738-3.192-3.738c-2.143,0-4.194,1.412-6.155,3.51v15.047h-4.058
			V45.954c0-2.234-0.82-3.738-3.191-3.738c-2.143,0-4.194,1.412-6.155,3.51v15.047H36.19V39.023h3.237l0.501,3.146
			c2.052-1.869,4.514-3.603,7.568-3.603c3.192,0,4.924,1.369,5.745,3.603c1.961-1.869,4.604-3.603,7.66-3.603
			c4.149,0,6.155,2.464,6.155,6.384v15.821H62.999z"/>
		<path fill="#16395F" d="M82.874,61.043c-2.143,0-4.104-0.41-5.471-0.957v8.57l-4.058,0.594V39.023h3.237l0.501,3.146
			c1.642-1.915,3.875-3.603,7.067-3.603c4.696,0,8.572,3.466,8.572,10.716C92.722,57.213,88.162,61.043,82.874,61.043z
			 M83.512,42.168c-2.462,0-4.377,1.504-6.109,3.828v10.44c1.641,0.819,2.963,1.187,5.289,1.187c3.419,0,5.927-2.781,5.927-8.16
			C88.618,44.721,86.475,42.168,83.512,42.168z"/>
		<path fill="#16395F" d="M98.19,60.771V28.49l4.058-0.638v32.919H98.19z"/>
		<path fill="#16395F" d="M117.977,62.686c-1.869,5.061-4.193,6.383-7.796,6.383c-0.547,0-1.003-0.09-1.413-0.184l-0.547-3.557
			c0.686,0.184,1.505,0.319,2.28,0.319c1.687,0,2.828-0.821,3.464-2.556l0.82-2.23l-7.933-21.522l4.012-0.639l5.926,17.327
			l5.791-17.007h4.148L117.977,62.686z"/>
		<path fill="#0E80B2" d="M145.467,35.922v24.85h-7.842v-24.85h-8.709v-6.611h24.895l1.094,6.611H145.467z"/>
		<path fill="#0E80B2" d="M165.526,60.771l-0.455-2.78c-1.824,1.914-3.968,3.235-7.021,3.235c-3.557,0-6.062-2.144-6.062-6.201
			c0-5.241,4.013-7.704,12.767-8.479v-0.41c0-1.959-1.094-2.826-3.375-2.826c-2.508,0-4.832,0.641-7.203,1.688l-0.819-5.197
			c2.554-1.049,5.425-1.733,9.071-1.733c6.156,0,9.211,2.053,9.211,7.752v14.955h-6.111v-0.003H165.526z M164.75,49.874
			c-4.695,0.729-5.973,2.281-5.973,4.24c0,1.414,0.866,2.188,2.145,2.188c1.322,0,2.598-0.592,3.828-1.688V49.874z"/>
		<path fill="#0E80B2" d="M187.773,60.999c-2.006,0-3.42-0.363-4.696-0.773v7.979l-6.885,1.049V38.429h6.064l0.455,2.966
			c1.551-1.733,3.557-3.42,6.43-3.42c4.604,0,8.023,3.465,8.023,11.033C197.165,57.489,192.698,60.999,187.773,60.999z
			 M186.907,44.127c-1.505,0-2.689,0.912-3.83,2.281v8.479c0.957,0.455,1.732,0.686,3.146,0.686c2.324,0,4.059-1.779,4.059-6.109
			C190.282,45.725,188.868,44.127,186.907,44.127z"/>
		<path fill="#0E80B2" d="M212.573,60.999c-2.006,0-3.418-0.363-4.695-0.773v7.979l-6.884,1.049V38.429h6.063l0.456,2.966
			c1.55-1.733,3.557-3.42,6.429-3.42c4.604,0,8.024,3.465,8.024,11.033C221.965,57.489,217.499,60.999,212.573,60.999z
			 M211.708,44.127c-1.504,0-2.688,0.912-3.83,2.281v8.479c0.957,0.455,1.732,0.686,3.146,0.686c2.325,0,4.059-1.779,4.059-6.109
			C215.081,45.725,213.668,44.127,211.708,44.127z"/>
	</g>
	<g>
		<path fill="#FFFFFF" stroke="#16395F" stroke-width="4" stroke-miterlimit="10" d="M177,27c0,0-6,0.125-6-6
			c0-5.75,5.666-5.333,5.666-5.333S177.5,9.833,182.5,7.5c5.957-2.78,11.498,0.375,11.498,0.375s3.518-5.088,12-4.208
			c15.252,1.583,14.997,22.67,4.668,23C200.25,27,177,27,177,27z"/>
		<path opacity="0.5" fill="#0E80B2" enable-background="new    " d="M173.125,21.5c0,0-0.176,3.583,3.918,3.583
			c3.729,0,33.145-0.396,33.145-0.396S214.146,25,215.334,21H173L173.125,21.5z"/>
	</g>
</g>
<g>
	<path fill="#1E334C" d="M280.784,61.135V45.886c0-3.779-2.109-6.152-6.064-6.152c-2.988,0-5.405,1.67-7.119,3.208V29.407
		l-3.911,0.615v31.113h3.911V46.633c1.89-2.021,3.999-3.384,6.064-3.384c2.285,0,3.208,1.45,3.208,3.604v14.282H280.784z
		 M257.62,58.762l-0.615-3.911c-2.416,1.758-5.273,3.032-8.525,3.032c-6.107,0-9.799-4.614-9.799-11.909s3.646-11.953,9.799-11.953
		c3.252,0,5.846,1.274,8.043,2.944l0.615-4.219c-2.33-1.582-5.01-2.505-8.613-2.505c-8.525,0-14.107,6.372-14.107,15.776
		c0,9.36,5.494,15.688,14.02,15.688C251.907,61.707,255.292,60.476,257.62,58.762z"/>
	<path fill="#1E334C" d="M410.356,61.223l-0.527-3.34c-0.483,0.088-1.099,0.132-1.802,0.132c-2.197,0-2.9-1.055-2.9-2.769V43.469
		h5.054l-0.527-3.296h-4.526v-7.559l-3.823,0.571v6.987h-3.164v3.296h3.164v12.48c0,4.219,2.417,5.537,6.108,5.537
		C408.774,61.487,409.697,61.355,410.356,61.223z M393.257,61.135V40.173h-3.911v14.502c-1.89,2.021-3.999,3.384-6.064,3.384
		c-2.285,0-3.208-1.45-3.208-3.604V40.173h-3.911v15.249c0,3.779,2.065,6.152,6.064,6.152c2.944,0,5.449-1.626,7.427-3.472
		l0.483,3.032H393.257z M366.448,50.676c0,4.395-1.934,7.646-5.801,7.646c-3.691,0-5.67-3.34-5.67-7.646
		c0-4.395,1.891-7.646,5.67-7.646S366.448,46.37,366.448,50.676z M370.403,50.676c0-6.899-4.131-10.942-9.756-10.942
		c-5.582,0-9.625,4.043-9.625,10.942s4.043,10.898,9.625,10.898C366.272,61.575,370.403,57.576,370.403,50.676z M348.866,60.784
		l-9.58-11.338l8.833-9.272h-4.702l-8.13,8.789V29.407l-3.911,0.615v31.113h3.911V50.149l9.316,11.294L348.866,60.784z
		 M325.616,59.333l-0.572-3.516c-2.152,1.846-3.998,2.329-6.107,2.329c-3.691,0-6.285-2.417-6.285-7.515
		c0-4.878,2.418-7.471,5.846-7.471c2.416,0,4.395,0.747,6.328,2.329l0.57-3.823c-1.582-1.143-3.779-1.934-6.855-1.934
		c-5.449,0-9.844,3.779-9.844,10.942c0,6.987,4.131,10.898,9.756,10.898C321.264,61.575,323.461,60.959,325.616,59.333z
		 M300.08,48.127h-10.107c0.615-3.604,2.681-5.317,5.098-5.317C298.102,42.81,299.596,44.744,300.08,48.127z M304.035,50.237
		c0-5.801-2.812-10.503-8.921-10.503c-5.273,0-9.229,4.131-9.229,10.854c0,7.69,4.263,10.986,9.712,10.986
		c3.472,0,6.152-1.055,8.394-2.812l-0.571-3.516c-2.285,1.802-4.482,2.988-7.515,2.988c-3.647,0-5.977-2.285-6.108-7.163h14.238
		C304.035,50.808,304.035,50.457,304.035,50.237z"/>
</g>
</svg>
