<?xml version="1.0" encoding="utf-8"?>
<!-- Generator: Adobe Illustrator 16.0.0, SVG Export Plug-In . SVG Version: 6.00 Build 0)  -->
<!DOCTYPE svg PUBLIC "-//W3C//DTD SVG 1.1//EN" "http://www.w3.org/Graphics/SVG/1.1/DTD/svg11.dtd">
<svg version="1.1" id="Layer_1" xmlns="http://www.w3.org/2000/svg" xmlns:xlink="http://www.w3.org/1999/xlink" x="0px" y="0px"
	 width="430.418px" height="80.427px" viewBox="0.995 1.564 430.418 80.427" enable-background="new 0.995 1.564 430.418 80.427"
	 xml:space="preserve">
<g>
	<g>
		<path fill="#16395F" d="M9.794,61.135c-3.419,0-6.474-0.82-8.799-2.052l0.638-4.377c2.143,1.414,5.106,2.688,8.252,2.688
			c3.283,0,5.608-1.731,5.608-4.787c0-2.871-1.276-4.057-6.018-6.199c-5.927-2.69-8.161-4.65-8.161-9.165
			c0-5.062,3.875-8.298,9.574-8.298c3.055,0,5.334,0.729,7.158,1.777l-0.684,4.286c-1.733-1.322-4.104-2.325-6.611-2.325
			c-3.602,0-5.198,1.915-5.198,4.24c0,2.416,1.187,3.557,5.973,5.744c6.109,2.781,8.207,4.879,8.207,9.621
			C19.734,57.716,15.676,61.135,9.794,61.135z"/>
		<path fill="#16395F" d="M27.482,34.646c-1.414,0-2.599-1.14-2.599-2.553s1.186-2.599,2.599-2.599s2.553,1.185,2.553,2.599
			S28.896,34.646,27.482,34.646z M25.431,60.771V39.023h4.058v21.748H25.431z"/>
		<path fill="#16395F" d="M62.999,60.771V45.953c0-2.234-0.821-3.738-3.192-3.738c-2.143,0-4.194,1.413-6.155,3.51v15.047h-4.058
			V45.953c0-2.234-0.82-3.738-3.191-3.738c-2.143,0-4.194,1.413-6.155,3.51v15.047H36.19V39.023h3.237l0.501,3.146
			c2.052-1.869,4.514-3.603,7.568-3.603c3.192,0,4.924,1.369,5.745,3.603c1.961-1.869,4.604-3.603,7.66-3.603
			c4.149,0,6.155,2.463,6.155,6.384v15.821H62.999z"/>
		<path fill="#16395F" d="M82.874,61.044c-2.143,0-4.104-0.41-5.471-0.958v8.571l-4.058,0.594V39.023h3.237l0.501,3.146
			c1.642-1.915,3.875-3.603,7.067-3.603c4.696,0,8.572,3.466,8.572,10.715C92.722,57.214,88.162,61.044,82.874,61.044z
			 M83.512,42.168c-2.462,0-4.377,1.505-6.109,3.829v10.44c1.641,0.82,2.963,1.187,5.289,1.187c3.419,0,5.927-2.781,5.927-8.161
			C88.618,44.722,86.475,42.168,83.512,42.168z"/>
		<path fill="#16395F" d="M98.19,60.771V28.49l4.058-0.638v32.919H98.19z"/>
		<path fill="#16395F" d="M117.977,62.686c-1.869,5.061-4.193,6.383-7.796,6.383c-0.547,0-1.003-0.09-1.413-0.183l-0.547-3.557
			c0.685,0.183,1.505,0.319,2.28,0.319c1.687,0,2.828-0.821,3.464-2.555l0.82-2.232l-7.933-21.521l4.012-0.639l5.926,17.326
			l5.791-17.006h4.148L117.977,62.686z"/>
		<path fill="#0E80B2" d="M145.467,35.922v24.85h-7.842v-24.85h-8.709v-6.611h24.895l1.094,6.611H145.467z"/>
		<path fill="#0E80B2" d="M165.526,60.771l-0.455-2.781c-1.824,1.914-3.968,3.236-7.021,3.236c-3.557,0-6.063-2.144-6.063-6.201
			c0-5.242,4.013-7.705,12.767-8.479v-0.41c0-1.96-1.094-2.827-3.375-2.827c-2.508,0-4.832,0.64-7.203,1.688l-0.819-5.197
			c2.554-1.049,5.425-1.733,9.071-1.733c6.156,0,9.211,2.053,9.211,7.752v14.955h-6.111V60.771z M164.75,49.874
			c-4.695,0.729-5.973,2.28-5.973,4.24c0,1.413,0.866,2.188,2.145,2.188c1.322,0,2.598-0.593,3.828-1.688V49.874z"/>
		<path fill="#0E80B2" d="M187.773,60.999c-2.006,0-3.42-0.364-4.696-0.774v7.979l-6.885,1.049V38.429h6.064l0.455,2.966
			c1.551-1.733,3.557-3.42,6.43-3.42c4.604,0,8.023,3.465,8.023,11.033C197.165,57.488,192.698,60.999,187.773,60.999z
			 M186.907,44.128c-1.505,0-2.689,0.912-3.83,2.28v8.479c0.957,0.456,1.732,0.685,3.146,0.685c2.324,0,4.059-1.778,4.059-6.109
			C190.282,45.725,188.868,44.128,186.907,44.128z"/>
		<path fill="#0E80B2" d="M212.573,60.999c-2.006,0-3.418-0.364-4.695-0.774v7.979l-6.885,1.049V38.429h6.063l0.456,2.966
			c1.55-1.733,3.557-3.42,6.429-3.42c4.604,0,8.024,3.465,8.024,11.033C221.965,57.488,217.499,60.999,212.573,60.999z
			 M211.708,44.128c-1.504,0-2.689,0.912-3.83,2.28v8.479c0.957,0.456,1.732,0.685,3.146,0.685c2.325,0,4.059-1.778,4.059-6.109
			C215.081,45.725,213.668,44.128,211.708,44.128z"/>
	</g>
	<g>
		<path fill="#FFFFFF" stroke="#16395F" stroke-width="4" stroke-miterlimit="10" d="M177,27c0,0-6,0.125-6-6
			c0-5.75,5.666-5.333,5.666-5.333S177.5,9.833,182.5,7.5c5.957-2.78,11.498,0.375,11.498,0.375s3.518-5.088,12-4.208
			c15.252,1.583,14.996,22.67,4.668,23C200.25,27,177,27,177,27z"/>
		<path opacity="0.5" fill="#0E80B2" enable-background="new    " d="M173.125,21.5c0,0-0.176,3.583,3.918,3.583
			c3.729,0,33.145-0.396,33.145-0.396S214.146,25,215.334,21H173L173.125,21.5z"/>
	</g>
</g>
<rect x="-77.517" y="-11" fill="none" width="3" height="0"/>
<text transform="matrix(1 0 0 1 232.2476 60.7773)" fill="#153349" font-family="'HelveticaNeue'" font-size="44.1029" letter-spacing="1">Checkout</text>
</svg>
